# AST/ASF file generated using VICON BodyLanguage
# -----------------------------------------------
:version 1.10
:name VICON
:units
  mass 1.0
  length 0.45
  angle deg
:documentation
   .ast/.asf automatically generated from VICON data using
   VICON BodyBuilder and BodyLanguage model FoxedUp or BRILLIANT.MOD
:root
   order TX TY TZ RX RY RZ
   axis XYZ
   position 0 0 0  
   orientation 0 0 0 
:bonedata
  begin
     id 1 
     name lhipjoint
     direction 0.561001 -0.76473 0.316963 
     length 2.4722 
     axis 0 0 0  XYZ
  end
  begin
     id 2 
     name lfemur
     direction 0.34202 -0.939693 0  
     length 7.59403  
     axis 0 0 20  XYZ
    dof rx ry rz
    limits (-160.0 20.0)
           (-70.0 70.0)
           (-60.0 70.0)
  end
  begin
     id 3 
     name ltibia
     direction 0.34202 -0.939693 0   
     length 7.89655   
     axis 0 0 20   XYZ
    dof rx
    limits (-10.0 170.0)
  end
  begin
     id 4 
     name lfoot
     direction 0.061296 -0.168409 0.98381   
     length 2.73287   
     axis -90 7.62852e-016 20   XYZ
    dof rx rz
    limits (-45.0 90.0)
           (-70.0 20.0)
  end
  begin
     id 5 
     name ltoes
     direction 1.53547e-011 -4.21984e-011 1   
     length 1.37057   
     axis -90 7.62852e-016 20   XYZ
    dof rx
    limits (-90.0 20.0)
  end
  begin
     id 6 
     name rhipjoint
     direction -0.559611 -0.765599 0.317323   
     length 2.46939  
     axis 0 0 0  XYZ 
  end
  begin
     id 7 
     name rfemur
     direction -0.34202 -0.939693 0   
     length 7.53712   
     axis 0 0 -20   XYZ
    dof rx ry rz
    limits (-160.0 20.0)
           (-70.0 70.0)
           (-70.0 60.0)
  end
  begin
     id 8 
     name rtibia
     direction -0.34202 -0.939693 0   
     length 8.12549   
     axis 0 0 -20   XYZ
    dof rx
    limits (-10.0 170.0)
 end
 begin
     id 9 
     name rfoot
     direction -0.066984 -0.184037 0.980634   
     length 2.67541  
     axis -90 -7.62852e-016 -20   XYZ
    dof rx rz
    limits (-45.0 90.0)
           (-20.0 70.0)
  end
  begin
     id 10 
     name rtoes
     direction -1.53549e-011 -4.21786e-011 1   
     length 1.34085   
     axis -90 -7.62852e-016 -20   XYZ
    dof rx
    limits (-90.0 20.0)
  end
  begin
     id 11 
     name lowerback
     direction -0.0522728 0.992594 -0.109658   
     length 2.05633   
     axis 0 0 0   XYZ
    dof rx ry rz
    limits (-20.0 45.0)
           (-30.0 30.0)
           (-30.0 30.0)
  end
  begin
     id 12 
     name upperback
     direction 0.00589338 0.999977 0.00335704   
     length 2.05845   
     axis 0 0 0   XYZ
    dof rx ry rz
    limits (-20.0 45.0)
           (-30.0 30.0)
           (-30.0 30.0)
  end
  begin
     id 13 
     name thorax
     direction 0.0292928 0.998059 0.0549487   
     length 2.09281   
     axis 0 0 0   XYZ
    dof rx ry rz
    limits (-20.0 45.0)
           (-30.0 30.0)
           (-30.0 30.0)
  end
  begin
     id 14 
     name lowerneck
     direction 0.0356368 0.980775 0.191858   
     length 1.84767   
     axis 0 0 0   XYZ
    dof rx ry rz
    limits (-20.0 45.0)
           (-30.0 30.0)
           (-30.0 30.0)
  end
  begin
     id 15 
     name upperneck
     direction -0.0227605 0.98931 -0.14404   
     length 1.89582   
     axis 0 0 0   XYZ
    dof rx ry rz
    limits (-20.0 45.0)
           (-30.0 30.0)
           (-30.0 30.0)
  end
  begin
     id 16
     name head
     direction -0.00932985 0.997511 -0.0698904  
     length 1.90213  
     axis 0 0 0   XYZ
    dof rx ry rz
    limits (-20.0 45.0)
           (-30.0 30.0)
           (-30.0 30.0)
  end
  begin
     id 17 
     name lclavicle
     direction 0.873442 0.479511 0.0846686  
     length 3.41193  
     axis 0 0 0   XYZ
    dof ry rz
    limits (-20.0 10.0)
           (0.0 20.0)
  end
  begin
     id 18 
     name lhumerus
     direction 1 -4.4897e-011 -5.62117e-018   
     length 5.59864   
     axis 180 -30 -90   XYZ
    dof rx ry rz
    limits (-60.0 90.0)
           (-90.0 90.0)
           (-90.0 90.0)
  end
  begin
     id 19
     name lradius
     direction 1 -4.48966e-011 -6.26295e-027   
     length 3.59542   
     axis 180 -30 -90   XYZ
    dof rx
    limits (-10.0 170.0)
  end
  begin
     id 20
     name lwrist
     direction 1 -4.48947e-011 -1.74096e-026   
     length 1.79771   
     axis 1.04567e-014 90 90   XYZ
    dof ry
    limits (-180.0 0.0)
 end
  begin
     id 21 
     name lhand
     direction 1 -4.49085e-011 -3.48469e-026   
     length 0.572014   
     axis 2.22196e-014 90 90   XYZ
    dof rx rz
    limits (-90.0 90.0)
           (-45.0 45.0)
  end
  begin
     id 22 
     name lfingers
     direction 1 -4.48884e-011 -6.96135e-026   
     length 0.461173   
     axis 4.44383e-014 90 90   XYZ
    dof rx
    limits (0.0 90.0)
  end
  begin
     id 23
     name lthumb
     direction 0.707107 -6.34976e-011 0.707107   
     length 0.662154   
     axis -90 45 -5.4397e-014   XYZ
    dof rx rz
    limits (-45.0 45.0)
           (-45.0 45.0)
  end
  begin
     id 24 
     name rclavicle
     direction -0.890242 0.443271 0.104786   
     length 3.46753  
     axis 0 0 0   XYZ 
    dof ry rz
    limits (-10.0 20.0)
           (-20.0 0.0)
  end
  begin
     id 25 
     name rhumerus
     direction -1 -4.48963e-011 -5.41723e-018  
     length 5.8094   
     axis 180 30 90   XYZ
    dof rx ry rz
    limits (-90.0 60.0)
           (-90.0 90.0)
           (-90.0 90.0)
  end
  begin
     id 26 
     name rradius
     direction -1 -4.48958e-011 -6.51059e-027   
     length 3.66953   
     axis 180 30 90   XYZ
    dof rx
    limits (-10.0 170.0)
  end
  begin
     id 27 
     name rwrist
     direction -1 -4.48975e-011 -1.74124e-026   
     length 1.83476   
     axis 1.04567e-014 -90 -90   XYZ
    dof ry
    limits (-180.0 0.0)
  end
  begin
     id 28
     name rhand
     direction -1 -4.49013e-011 -3.48326e-026   
     length 0.57843   
     axis 2.22196e-014 -90 -90   XYZ
    dof rx rz
    limits (-90.0 90.0)
           (-45.0 45.0)
  end
  begin
     id 29
     name rfingers
     direction -1 -4.49023e-011 -6.9669e-026   
     length 0.466345   
     axis 4.44383e-014 -90 -90   XYZ
    dof rx
    limits (0.0 90.0)
  end
  begin
     id 30
     name rthumb
     direction -0.707107 -6.34926e-011 0.707107   
     length 0.669581   
     axis -90 -45 5.4397e-014   XYZ
    dof rx rz
    limits (-45.0 45.0)
           (-45.0 45.0)
  end
:hierarchy
  begin
    root lhipjoint rhipjoint lowerback
    lhipjoint lfemur
    lfemur ltibia
    ltibia lfoot
    lfoot ltoes
    rhipjoint rfemur
    rfemur rtibia
    rtibia rfoot
    rfoot rtoes
    lowerback upperback
    upperback thorax
    thorax lowerneck lclavicle rclavicle
    lowerneck upperneck
    upperneck head
    lclavicle lhumerus
    lhumerus lradius
    lradius lwrist
    lwrist lhand lthumb
    lhand lfingers
    rclavicle rhumerus
    rhumerus rradius
    rradius rwrist
    rwrist rhand rthumb
    rhand rfingers
  end

#!OML:ASF H:\SkateBoarding\Project 1\Capture day 1\Session 1\Skater.ASF
:FULLY-SPECIFIED
:DEGREES
80
root -0.917485 19.2812 -11.3213 -0.529202 21.4113 -1.25718
lowerback 7.86381 -1.6325 -1.70059
upperback -1.0892 -2.29513 0.8906
thorax -5.44428 -1.06604 2.16721
lowerneck -16.2225 0.0428271 1.52917
upperneck 34.7888 -0.305417 0.0904884
head 14.7543 0.149877 -0.267329
rclavicle -1.98629e-014 4.47266e-016
rhumerus -32.6865 -1.40436 -84.4252
rradius 33.254
rwrist -8.68561
rhand -31.9007 -12.1349
rfingers 7.12502
rthumb -5.15289 -42.0523
lclavicle -1.98629e-014 4.47266e-016
lhumerus -26.8325 -4.28758 90.4872
lradius 30.8688
lwrist 18.3795
lhand -20.2059 15.2761
lfingers 7.12502
lthumb 6.14101 45.1671
rfemur -23.4896 14.3475 20.6625
rtibia 44.7827
rfoot -21.0267 7.23519
rtoes -10.8843
lfemur -16.2821 -20.7338 -10.3127
ltibia 25.4898
lfoot -15.7794 -5.27257
ltoes 4.53553
81
root -0.886753 19.2375 -11.0974 -0.706659 21.0289 -1.28602
lowerback 7.9133 -1.62432 -1.72611
upperback -1.05349 -2.28695 0.895354
thorax -5.4341 -1.06154 2.18648
lowerneck -16.2233 0.0874336 1.57103
upperneck 34.7816 -0.257471 0.0933426
head 14.7517 0.174903 -0.265653
rclavicle 3.13622e-014 -1.04362e-015
rhumerus -32.703 -1.52721 -84.4691
rradius 33.0022
rwrist -8.4503
rhand -31.8835 -12.0249
rfingers 7.12502
rthumb -5.1362 -41.9426
lclavicle 3.13622e-014 -1.04362e-015
lhumerus -26.9012 -4.12728 90.4164
lradius 30.7805
lwrist 18.3009
lhand -20.2384 15.2985
lfingers 7.12502
lthumb 6.10963 45.1904
rfemur -23.7596 14.5437 20.6139
rtibia 45.4777
rfoot -21.1282 7.67686
rtoes -10.6928
lfemur -16.2686 -21.3696 -10.1289
ltibia 23.9662
lfoot -15.9907 -6.20476
ltoes 5.11965
82
root -0.855876 19.1937 -10.8735 -0.896138 20.6575 -1.30835
lowerback 7.95993 -1.61983 -1.76204
upperback -1.01249 -2.28489 0.896051
thorax -5.41623 -1.05998 2.20787
lowerneck -16.217 0.134451 1.6144
upperneck 34.7713 -0.20713 0.0987499
head 14.7461 0.201482 -0.262773
rclavicle -3.70244e-014 -3.97569e-015
rhumerus -32.7257 -1.66032 -84.509
rradius 32.7507
rwrist -8.22192
rhand -31.8936 -11.8842
rfingers 7.12502
rthumb -5.14601 -41.8018
lclavicle -3.70244e-014 -3.97569e-015
lhumerus -26.9901 -3.9872 90.3532
lradius 30.7239
lwrist 18.2575
lhand -20.276 15.332
lfingers 7.12502
lthumb 6.07339 45.225
rfemur -24.0055 14.727 20.5623
rtibia 46.1622
rfoot -21.2237 8.13533
rtoes -10.4668
lfemur -16.2671 -22.03 -9.95702
ltibia 22.5094
lfoot -16.3293 -7.14584
ltoes 5.46207
83
root -0.824988 19.1484 -10.6495 -1.10385 20.3044 -1.33253
lowerback 8.01442 -1.62052 -1.79616
upperback -0.97062 -2.29005 0.890061
thorax -5.40186 -1.0621 2.22243
lowerneck -16.2044 0.183234 1.66268
upperneck 34.7649 -0.157599 0.109863
head 14.7409 0.22924 -0.25853
rclavicle -2.75076e-014 5.81445e-015
rhumerus -32.7682 -1.81511 -84.5469
rradius 32.5097
rwrist -7.9951
rhand -31.9915 -11.651
rfingers 7.12502
rthumb -5.24057 -41.5662
lclavicle -2.75076e-014 5.81445e-015
lhumerus -27.1049 -3.8807 90.2934
lradius 30.6971
lwrist 18.2489
lhand -20.3132 15.3716
lfingers 7.12502
lthumb 6.03747 45.2655
rfemur -24.2296 14.9019 20.5191
rtibia 46.853
rfoot -21.33 8.59991
rtoes -10.2405
lfemur -16.2661 -22.7269 -9.7889
ltibia 21.1081
lfoot -16.7828 -8.13181
ltoes 5.81002
84
root -0.793867 19.1007 -10.4254 -1.32761 19.9707 -1.35619
lowerback 8.07041 -1.62674 -1.8373
upperback -0.925038 -2.3033 0.884404
thorax -5.38376 -1.06811 2.24224
lowerneck -16.1898 0.233681 1.70905
upperneck 34.7625 -0.104125 0.119269
head 14.7372 0.258253 -0.253982
rclavicle 1.49865e-015 -7.55382e-015
rhumerus -32.8242 -1.97312 -84.5751
rradius 32.2853
rwrist -7.7825
rhand -32.1616 -11.3269
rfingers 7.12502
rthumb -5.40475 -41.2379
lclavicle 1.49865e-015 -7.55382e-015
lhumerus -27.2355 -3.79606 90.2466
lradius 30.6924
lwrist 18.2652
lhand -20.3435 15.4292
lfingers 7.12502
lthumb 6.00817 45.324
rfemur -24.4393 15.068 20.4804
rtibia 47.5623
rfoot -21.4465 9.07895
rtoes -9.99374
lfemur -16.2594 -23.4821 -9.62543
ltibia 19.753
lfoot -17.346 -9.17833
ltoes 6.28124
85
root -0.762378 19.0503 -10.2013 -1.56832 19.6566 -1.39
lowerback 8.12769 -1.63919 -1.87032
upperback -0.876913 -2.32402 0.879447
thorax -5.36361 -1.07811 2.25912
lowerneck -16.1706 0.286103 1.75746
upperneck 34.7625 -0.0460629 0.123139
head 14.7336 0.288766 -0.2513
rclavicle 5.9901e-014 6.95746e-016
rhumerus -32.8938 -2.14218 -84.5935
rradius 32.0796
rwrist -7.5762
rhand -32.3737 -10.9675
rfingers 7.12502
rthumb -5.60957 -40.8733
lclavicle 5.9901e-014 6.95746e-016
lhumerus -27.3759 -3.73262 90.2094
lradius 30.7015
lwrist 18.2973
lhand -20.3561 15.4655
lfingers 7.12502
lthumb 5.99607 45.3607
rfemur -24.6401 15.223 20.4574
rtibia 48.2964
rfoot -21.5785 9.56364
rtoes -9.76379
lfemur -16.2465 -24.3189 -9.44859
ltibia 18.4397
lfoot -18.0176 -10.2812
ltoes 6.92127
86
root -0.730455 18.9974 -9.97739 -1.82709 19.3665 -1.44208
lowerback 8.19013 -1.6611 -1.88557
upperback -0.829102 -2.35552 0.877705
thorax -5.34668 -1.09386 2.27092
lowerneck -16.1531 0.34157 1.80897
upperneck 34.7712 0.0189876 0.117886
head 14.7345 0.321493 -0.251735
rclavicle 3.18467e-014 -4.47266e-015
rhumerus -32.9839 -2.31336 -84.6031
rradius 31.8998
rwrist -7.38088
rhand -32.582 -10.6134
rfingers 7.12502
rthumb -5.81064 -40.5137
lclavicle 3.18467e-014 -4.47266e-015
lhumerus -27.5268 -3.68339 90.1808
lradius 30.721
lwrist 18.3376
lhand -20.3364 15.4852
lfingers 7.12502
lthumb 6.01505 45.3798
rfemur -24.8305 15.3693 20.4581
rtibia 49.0539
rfoot -21.7263 10.054
rtoes -9.51155
lfemur -16.2321 -25.228 -9.25057
ltibia 17.1741
lfoot -18.7628 -11.4401
ltoes 7.72756
87
root -0.697948 18.9424 -9.75368 -2.10229 19.0974 -1.51348
lowerback 8.25288 -1.68198 -1.87679
upperback -0.786886 -2.38351 0.871531
thorax -5.33709 -1.10848 2.26436
lowerneck -16.1139 0.390644 1.87699
upperneck 34.7843 0.0723729 0.106087
head 14.7325 0.350694 -0.25977
rclavicle -6.16663e-014 -5.96354e-015
rhumerus -33.1162 -2.5223 -84.5987
rradius 31.7543
rwrist -7.18885
rhand -32.774 -10.2801
rfingers 7.12502
rthumb -5.99602 -40.1753
lclavicle -6.16663e-014 -5.96354e-015
lhumerus -27.6944 -3.6803 90.1646
lradius 30.7426
lwrist 18.3768
lhand -20.2863 15.4798
lfingers 7.12502
lthumb 6.06337 45.3731
rfemur -25.0104 15.5051 20.4829
rtibia 49.8288
rfoot -21.8839 10.5431
rtoes -9.26249
lfemur -16.2248 -26.2006 -9.02938
ltibia 15.9712
lfoot -19.566 -12.6313
ltoes 8.64065
88
root -0.664794 18.886 -9.53044 -2.39071 18.8479 -1.61058
lowerback 8.31588 -1.71453 -1.84538
upperback -0.744784 -2.4242 0.875741
thorax -5.32758 -1.12986 2.25753
lowerneck -16.0817 0.445206 1.94436
upperneck 34.806 0.139684 0.0791335
head 14.7363 0.383693 -0.271581
rclavicle 6.66938e-015 -2.08724e-015
rhumerus -33.2639 -2.71622 -84.5829
rradius 31.6373
rwrist -7.01682
rhand -32.9292 -10.0008
rfingers 7.12502
rthumb -6.14589 -39.8917
lclavicle 6.66938e-015 -2.08724e-015
lhumerus -27.8647 -3.65989 90.157
lradius 30.771
lwrist 18.3964
lhand -20.2003 15.4481
lfingers 7.12502
lthumb 6.14648 45.339
rfemur -25.1818 15.6333 20.537
rtibia 50.6133
rfoot -22.0525 11.0223
rtoes -8.99765
lfemur -16.2429 -27.2141 -8.77867
ltibia 14.8516
lfoot -20.416 -13.8321
ltoes 9.56804
89
root -0.630979 18.8292 -9.30768 -2.68909 18.6158 -1.72769
lowerback 8.3774 -1.74172 -1.78473
upperback -0.714348 -2.45527 0.871292
thorax -5.33156 -1.14714 2.22436
lowerneck -16.0188 0.487863 2.03396
upperneck 34.8322 0.1844 0.0488423
head 14.735 0.409765 -0.292558
rclavicle 3.48951e-015 2.78299e-015
rhumerus -33.4677 -2.95168 -84.5562
rradius 31.5595
rwrist -6.87051
rhand -33.0133 -9.82454
rfingers 7.12502
rthumb -6.2271 -39.713
lclavicle 3.48951e-015 2.78299e-015
lhumerus -28.0537 -3.68642 90.1594
lradius 30.7934
lwrist 18.4086
lhand -20.0851 15.388
lfingers 7.12502
lthumb 6.25765 45.2755
rfemur -25.3427 15.7565 20.6142
rtibia 51.4007
rfoot -22.229 11.4892
rtoes -8.72054
lfemur -16.2936 -28.2262 -8.51334
ltibia 13.8359
lfoot -21.3012 -14.9864
ltoes 10.4071
90
root -0.596688 18.7724 -9.08538 -2.99759 18.397 -1.8652
lowerback 8.43721 -1.77242 -1.7064
upperback -0.688534 -2.48896 0.870228
thorax -5.33994 -1.16606 2.18521
lowerneck -15.9501 0.529166 2.12971
upperneck 34.8655 0.227864 0.0121723
head 14.7358 0.435359 -0.317487
rclavicle 2.91814e-014 6.4605e-015
rhumerus -33.7012 -3.19253 -84.5178
rradius 31.5052
rwrist -6.75113
rhand -33.0373 -9.73126
rfingers 7.12502
rthumb -6.25025 -39.619
lclavicle 2.91814e-014 6.4605e-015
lhumerus -28.2472 -3.70816 90.1693
lradius 30.8093
lwrist 18.3958
lhand -19.9632 15.3192
lfingers 7.12502
lthumb 6.37538 45.2033
rfemur -25.4914 15.8769 20.7176
rtibia 52.1884
rfoot -22.4141 11.9404
rtoes -8.43405
lfemur -16.3802 -29.196 -8.24093
ltibia 12.9386
lfoot -22.2047 -16.0627
ltoes 11.0919
91
root -0.561912 18.7157 -8.86365 -3.31239 18.1881 -2.01178
lowerback 8.49359 -1.80776 -1.62459
upperback -0.662797 -2.52809 0.873996
thorax -5.34623 -1.18772 2.14975
lowerneck -15.8877 0.571737 2.22146
upperneck 34.906 0.275953 -0.0282965
head 14.7416 0.461954 -0.342507
rclavicle -2.41026e-015 9.74045e-015
rhumerus -33.9467 -3.42657 -84.4645
rradius 31.4635
rwrist -6.66373
rhand -33.0063 -9.68075
rfingers 7.12502
rthumb -6.22028 -39.5694
lclavicle -2.41026e-015 9.74045e-015
lhumerus -28.4374 -3.70791 90.1869
lradius 30.8214
lwrist 18.3625
lhand -19.8359 15.2396
lfingers 7.12502
lthumb 6.49827 45.1199
rfemur -25.6297 15.9945 20.8357
rtibia 52.9776
rfoot -22.6121 12.3657
rtoes -8.17419
lfemur -16.4937 -30.0874 -7.98484
ltibia 12.1573
lfoot -23.1149 -17.0192
ltoes 11.6107
